# Quadcopter X-frame: body + canopy + 4 arms + 4 motors + 4 two-blade props.
# Triangle-soup assembly (not watertight), centered on the CoG. Meters, +Z up.
# Referenced by quadcopter.yaml. Regenerate: python examples/generate_quadcopter_mesh.py
# 368 vertices, 648 faces.
v -0.05000 -0.05000 -0.01750
v 0.05000 -0.05000 -0.01750
v 0.05000 0.05000 -0.01750
v -0.05000 0.05000 -0.01750
v -0.05000 -0.05000 0.01750
v 0.05000 -0.05000 0.01750
v 0.05000 0.05000 0.01750
v -0.05000 0.05000 0.01750
v -0.03000 -0.03750 0.01400
v 0.03000 -0.03750 0.01400
v 0.03000 0.03750 0.01400
v -0.03000 0.03750 0.01400
v -0.03000 -0.03750 0.04200
v 0.03000 -0.03750 0.04200
v 0.03000 0.03750 0.04200
v -0.03000 0.03750 0.04200
v -0.00071 -0.01202 -0.00600
v 0.14364 -0.15636 -0.00600
v 0.15636 -0.14364 -0.00600
v 0.01202 0.00071 -0.00600
v -0.00071 -0.01202 0.00600
v 0.14364 -0.15636 0.00600
v 0.15636 -0.14364 0.00600
v 0.01202 0.00071 0.00600
v 0.16900 -0.15000 -0.00600
v 0.16785 -0.14350 -0.00600
v 0.16455 -0.13779 -0.00600
v 0.15950 -0.13355 -0.00600
v 0.15330 -0.13129 -0.00600
v 0.14670 -0.13129 -0.00600
v 0.14050 -0.13355 -0.00600
v 0.13545 -0.13779 -0.00600
v 0.13215 -0.14350 -0.00600
v 0.13100 -0.15000 -0.00600
v 0.13215 -0.15650 -0.00600
v 0.13545 -0.16221 -0.00600
v 0.14050 -0.16645 -0.00600
v 0.14670 -0.16871 -0.00600
v 0.15330 -0.16871 -0.00600
v 0.15950 -0.16645 -0.00600
v 0.16455 -0.16221 -0.00600
v 0.16785 -0.15650 -0.00600
v 0.16900 -0.15000 0.02400
v 0.16785 -0.14350 0.02400
v 0.16455 -0.13779 0.02400
v 0.15950 -0.13355 0.02400
v 0.15330 -0.13129 0.02400
v 0.14670 -0.13129 0.02400
v 0.14050 -0.13355 0.02400
v 0.13545 -0.13779 0.02400
v 0.13215 -0.14350 0.02400
v 0.13100 -0.15000 0.02400
v 0.13215 -0.15650 0.02400
v 0.13545 -0.16221 0.02400
v 0.14050 -0.16645 0.02400
v 0.14670 -0.16871 0.02400
v 0.15330 -0.16871 0.02400
v 0.15950 -0.16645 0.02400
v 0.16455 -0.16221 0.02400
v 0.16785 -0.15650 0.02400
v 0.15000 -0.15000 -0.00600
v 0.15000 -0.15000 0.02400
v 0.00071 0.01202 -0.00600
v -0.14364 0.15636 -0.00600
v -0.15636 0.14364 -0.00600
v -0.01202 -0.00071 -0.00600
v 0.00071 0.01202 0.00600
v -0.14364 0.15636 0.00600
v -0.15636 0.14364 0.00600
v -0.01202 -0.00071 0.00600
v -0.13100 0.15000 -0.00600
v -0.13215 0.15650 -0.00600
v -0.13545 0.16221 -0.00600
v -0.14050 0.16645 -0.00600
v -0.14670 0.16871 -0.00600
v -0.15330 0.16871 -0.00600
v -0.15950 0.16645 -0.00600
v -0.16455 0.16221 -0.00600
v -0.16785 0.15650 -0.00600
v -0.16900 0.15000 -0.00600
v -0.16785 0.14350 -0.00600
v -0.16455 0.13779 -0.00600
v -0.15950 0.13355 -0.00600
v -0.15330 0.13129 -0.00600
v -0.14670 0.13129 -0.00600
v -0.14050 0.13355 -0.00600
v -0.13545 0.13779 -0.00600
v -0.13215 0.14350 -0.00600
v -0.13100 0.15000 0.02400
v -0.13215 0.15650 0.02400
v -0.13545 0.16221 0.02400
v -0.14050 0.16645 0.02400
v -0.14670 0.16871 0.02400
v -0.15330 0.16871 0.02400
v -0.15950 0.16645 0.02400
v -0.16455 0.16221 0.02400
v -0.16785 0.15650 0.02400
v -0.16900 0.15000 0.02400
v -0.16785 0.14350 0.02400
v -0.16455 0.13779 0.02400
v -0.15950 0.13355 0.02400
v -0.15330 0.13129 0.02400
v -0.14670 0.13129 0.02400
v -0.14050 0.13355 0.02400
v -0.13545 0.13779 0.02400
v -0.13215 0.14350 0.02400
v -0.15000 0.15000 -0.00600
v -0.15000 0.15000 0.02400
v 0.01202 -0.00071 -0.00600
v 0.15636 0.14364 -0.00600
v 0.14364 0.15636 -0.00600
v -0.00071 0.01202 -0.00600
v 0.01202 -0.00071 0.00600
v 0.15636 0.14364 0.00600
v 0.14364 0.15636 0.00600
v -0.00071 0.01202 0.00600
v 0.16900 0.15000 -0.00600
v 0.16785 0.15650 -0.00600
v 0.16455 0.16221 -0.00600
v 0.15950 0.16645 -0.00600
v 0.15330 0.16871 -0.00600
v 0.14670 0.16871 -0.00600
v 0.14050 0.16645 -0.00600
v 0.13545 0.16221 -0.00600
v 0.13215 0.15650 -0.00600
v 0.13100 0.15000 -0.00600
v 0.13215 0.14350 -0.00600
v 0.13545 0.13779 -0.00600
v 0.14050 0.13355 -0.00600
v 0.14670 0.13129 -0.00600
v 0.15330 0.13129 -0.00600
v 0.15950 0.13355 -0.00600
v 0.16455 0.13779 -0.00600
v 0.16785 0.14350 -0.00600
v 0.16900 0.15000 0.02400
v 0.16785 0.15650 0.02400
v 0.16455 0.16221 0.02400
v 0.15950 0.16645 0.02400
v 0.15330 0.16871 0.02400
v 0.14670 0.16871 0.02400
v 0.14050 0.16645 0.02400
v 0.13545 0.16221 0.02400
v 0.13215 0.15650 0.02400
v 0.13100 0.15000 0.02400
v 0.13215 0.14350 0.02400
v 0.13545 0.13779 0.02400
v 0.14050 0.13355 0.02400
v 0.14670 0.13129 0.02400
v 0.15330 0.13129 0.02400
v 0.15950 0.13355 0.02400
v 0.16455 0.13779 0.02400
v 0.16785 0.14350 0.02400
v 0.15000 0.15000 -0.00600
v 0.15000 0.15000 0.02400
v -0.01202 0.00071 -0.00600
v -0.15636 -0.14364 -0.00600
v -0.14364 -0.15636 -0.00600
v 0.00071 -0.01202 -0.00600
v -0.01202 0.00071 0.00600
v -0.15636 -0.14364 0.00600
v -0.14364 -0.15636 0.00600
v 0.00071 -0.01202 0.00600
v -0.13100 -0.15000 -0.00600
v -0.13215 -0.14350 -0.00600
v -0.13545 -0.13779 -0.00600
v -0.14050 -0.13355 -0.00600
v -0.14670 -0.13129 -0.00600
v -0.15330 -0.13129 -0.00600
v -0.15950 -0.13355 -0.00600
v -0.16455 -0.13779 -0.00600
v -0.16785 -0.14350 -0.00600
v -0.16900 -0.15000 -0.00600
v -0.16785 -0.15650 -0.00600
v -0.16455 -0.16221 -0.00600
v -0.15950 -0.16645 -0.00600
v -0.15330 -0.16871 -0.00600
v -0.14670 -0.16871 -0.00600
v -0.14050 -0.16645 -0.00600
v -0.13545 -0.16221 -0.00600
v -0.13215 -0.15650 -0.00600
v -0.13100 -0.15000 0.02400
v -0.13215 -0.14350 0.02400
v -0.13545 -0.13779 0.02400
v -0.14050 -0.13355 0.02400
v -0.14670 -0.13129 0.02400
v -0.15330 -0.13129 0.02400
v -0.15950 -0.13355 0.02400
v -0.16455 -0.13779 0.02400
v -0.16785 -0.14350 0.02400
v -0.16900 -0.15000 0.02400
v -0.16785 -0.15650 0.02400
v -0.16455 -0.16221 0.02400
v -0.15950 -0.16645 0.02400
v -0.15330 -0.16871 0.02400
v -0.14670 -0.16871 0.02400
v -0.14050 -0.16645 0.02400
v -0.13545 -0.16221 0.02400
v -0.13215 -0.15650 0.02400
v -0.15000 -0.15000 -0.00600
v -0.15000 -0.15000 0.02400
v 0.15800 -0.15800 0.03150
v 0.22500 -0.15800 0.03150
v 0.22500 -0.14200 0.03150
v 0.15800 -0.14200 0.03150
v 0.15800 -0.15800 0.03650
v 0.22500 -0.15800 0.03650
v 0.22500 -0.14200 0.03650
v 0.15800 -0.14200 0.03650
v 0.14200 -0.14200 0.03150
v 0.07500 -0.14200 0.03150
v 0.07500 -0.15800 0.03150
v 0.14200 -0.15800 0.03150
v 0.14200 -0.14200 0.03650
v 0.07500 -0.14200 0.03650
v 0.07500 -0.15800 0.03650
v 0.14200 -0.15800 0.03650
v 0.15900 -0.15000 0.03000
v 0.15779 -0.14550 0.03000
v 0.15450 -0.14221 0.03000
v 0.15000 -0.14100 0.03000
v 0.14550 -0.14221 0.03000
v 0.14221 -0.14550 0.03000
v 0.14100 -0.15000 0.03000
v 0.14221 -0.15450 0.03000
v 0.14550 -0.15779 0.03000
v 0.15000 -0.15900 0.03000
v 0.15450 -0.15779 0.03000
v 0.15779 -0.15450 0.03000
v 0.15900 -0.15000 0.04200
v 0.15779 -0.14550 0.04200
v 0.15450 -0.14221 0.04200
v 0.15000 -0.14100 0.04200
v 0.14550 -0.14221 0.04200
v 0.14221 -0.14550 0.04200
v 0.14100 -0.15000 0.04200
v 0.14221 -0.15450 0.04200
v 0.14550 -0.15779 0.04200
v 0.15000 -0.15900 0.04200
v 0.15450 -0.15779 0.04200
v 0.15779 -0.15450 0.04200
v 0.15000 -0.15000 0.03000
v 0.15000 -0.15000 0.04200
v -0.14200 0.14200 0.03150
v -0.07500 0.14200 0.03150
v -0.07500 0.15800 0.03150
v -0.14200 0.15800 0.03150
v -0.14200 0.14200 0.03650
v -0.07500 0.14200 0.03650
v -0.07500 0.15800 0.03650
v -0.14200 0.15800 0.03650
v -0.15800 0.15800 0.03150
v -0.22500 0.15800 0.03150
v -0.22500 0.14200 0.03150
v -0.15800 0.14200 0.03150
v -0.15800 0.15800 0.03650
v -0.22500 0.15800 0.03650
v -0.22500 0.14200 0.03650
v -0.15800 0.14200 0.03650
v -0.14100 0.15000 0.03000
v -0.14221 0.15450 0.03000
v -0.14550 0.15779 0.03000
v -0.15000 0.15900 0.03000
v -0.15450 0.15779 0.03000
v -0.15779 0.15450 0.03000
v -0.15900 0.15000 0.03000
v -0.15779 0.14550 0.03000
v -0.15450 0.14221 0.03000
v -0.15000 0.14100 0.03000
v -0.14550 0.14221 0.03000
v -0.14221 0.14550 0.03000
v -0.14100 0.15000 0.04200
v -0.14221 0.15450 0.04200
v -0.14550 0.15779 0.04200
v -0.15000 0.15900 0.04200
v -0.15450 0.15779 0.04200
v -0.15779 0.15450 0.04200
v -0.15900 0.15000 0.04200
v -0.15779 0.14550 0.04200
v -0.15450 0.14221 0.04200
v -0.15000 0.14100 0.04200
v -0.14550 0.14221 0.04200
v -0.14221 0.14550 0.04200
v -0.15000 0.15000 0.03000
v -0.15000 0.15000 0.04200
v 0.15800 0.14200 0.03150
v 0.22500 0.14200 0.03150
v 0.22500 0.15800 0.03150
v 0.15800 0.15800 0.03150
v 0.15800 0.14200 0.03650
v 0.22500 0.14200 0.03650
v 0.22500 0.15800 0.03650
v 0.15800 0.15800 0.03650
v 0.14200 0.15800 0.03150
v 0.07500 0.15800 0.03150
v 0.07500 0.14200 0.03150
v 0.14200 0.14200 0.03150
v 0.14200 0.15800 0.03650
v 0.07500 0.15800 0.03650
v 0.07500 0.14200 0.03650
v 0.14200 0.14200 0.03650
v 0.15900 0.15000 0.03000
v 0.15779 0.15450 0.03000
v 0.15450 0.15779 0.03000
v 0.15000 0.15900 0.03000
v 0.14550 0.15779 0.03000
v 0.14221 0.15450 0.03000
v 0.14100 0.15000 0.03000
v 0.14221 0.14550 0.03000
v 0.14550 0.14221 0.03000
v 0.15000 0.14100 0.03000
v 0.15450 0.14221 0.03000
v 0.15779 0.14550 0.03000
v 0.15900 0.15000 0.04200
v 0.15779 0.15450 0.04200
v 0.15450 0.15779 0.04200
v 0.15000 0.15900 0.04200
v 0.14550 0.15779 0.04200
v 0.14221 0.15450 0.04200
v 0.14100 0.15000 0.04200
v 0.14221 0.14550 0.04200
v 0.14550 0.14221 0.04200
v 0.15000 0.14100 0.04200
v 0.15450 0.14221 0.04200
v 0.15779 0.14550 0.04200
v 0.15000 0.15000 0.03000
v 0.15000 0.15000 0.04200
v -0.14200 -0.15800 0.03150
v -0.07500 -0.15800 0.03150
v -0.07500 -0.14200 0.03150
v -0.14200 -0.14200 0.03150
v -0.14200 -0.15800 0.03650
v -0.07500 -0.15800 0.03650
v -0.07500 -0.14200 0.03650
v -0.14200 -0.14200 0.03650
v -0.15800 -0.14200 0.03150
v -0.22500 -0.14200 0.03150
v -0.22500 -0.15800 0.03150
v -0.15800 -0.15800 0.03150
v -0.15800 -0.14200 0.03650
v -0.22500 -0.14200 0.03650
v -0.22500 -0.15800 0.03650
v -0.15800 -0.15800 0.03650
v -0.14100 -0.15000 0.03000
v -0.14221 -0.14550 0.03000
v -0.14550 -0.14221 0.03000
v -0.15000 -0.14100 0.03000
v -0.15450 -0.14221 0.03000
v -0.15779 -0.14550 0.03000
v -0.15900 -0.15000 0.03000
v -0.15779 -0.15450 0.03000
v -0.15450 -0.15779 0.03000
v -0.15000 -0.15900 0.03000
v -0.14550 -0.15779 0.03000
v -0.14221 -0.15450 0.03000
v -0.14100 -0.15000 0.04200
v -0.14221 -0.14550 0.04200
v -0.14550 -0.14221 0.04200
v -0.15000 -0.14100 0.04200
v -0.15450 -0.14221 0.04200
v -0.15779 -0.14550 0.04200
v -0.15900 -0.15000 0.04200
v -0.15779 -0.15450 0.04200
v -0.15450 -0.15779 0.04200
v -0.15000 -0.15900 0.04200
v -0.14550 -0.15779 0.04200
v -0.14221 -0.15450 0.04200
v -0.15000 -0.15000 0.03000
v -0.15000 -0.15000 0.04200
f 1 3 2
f 1 4 3
f 5 6 7
f 5 7 8
f 1 2 6
f 1 6 5
f 2 3 7
f 2 7 6
f 3 4 8
f 3 8 7
f 4 1 5
f 4 5 8
f 9 11 10
f 9 12 11
f 13 14 15
f 13 15 16
f 9 10 14
f 9 14 13
f 10 11 15
f 10 15 14
f 11 12 16
f 11 16 15
f 12 9 13
f 12 13 16
f 17 19 18
f 17 20 19
f 21 22 23
f 21 23 24
f 17 18 22
f 17 22 21
f 18 19 23
f 18 23 22
f 19 20 24
f 19 24 23
f 20 17 21
f 20 21 24
f 25 26 44
f 25 44 43
f 61 26 25
f 62 43 44
f 26 27 45
f 26 45 44
f 61 27 26
f 62 44 45
f 27 28 46
f 27 46 45
f 61 28 27
f 62 45 46
f 28 29 47
f 28 47 46
f 61 29 28
f 62 46 47
f 29 30 48
f 29 48 47
f 61 30 29
f 62 47 48
f 30 31 49
f 30 49 48
f 61 31 30
f 62 48 49
f 31 32 50
f 31 50 49
f 61 32 31
f 62 49 50
f 32 33 51
f 32 51 50
f 61 33 32
f 62 50 51
f 33 34 52
f 33 52 51
f 61 34 33
f 62 51 52
f 34 35 53
f 34 53 52
f 61 35 34
f 62 52 53
f 35 36 54
f 35 54 53
f 61 36 35
f 62 53 54
f 36 37 55
f 36 55 54
f 61 37 36
f 62 54 55
f 37 38 56
f 37 56 55
f 61 38 37
f 62 55 56
f 38 39 57
f 38 57 56
f 61 39 38
f 62 56 57
f 39 40 58
f 39 58 57
f 61 40 39
f 62 57 58
f 40 41 59
f 40 59 58
f 61 41 40
f 62 58 59
f 41 42 60
f 41 60 59
f 61 42 41
f 62 59 60
f 42 25 43
f 42 43 60
f 61 25 42
f 62 60 43
f 63 65 64
f 63 66 65
f 67 68 69
f 67 69 70
f 63 64 68
f 63 68 67
f 64 65 69
f 64 69 68
f 65 66 70
f 65 70 69
f 66 63 67
f 66 67 70
f 71 72 90
f 71 90 89
f 107 72 71
f 108 89 90
f 72 73 91
f 72 91 90
f 107 73 72
f 108 90 91
f 73 74 92
f 73 92 91
f 107 74 73
f 108 91 92
f 74 75 93
f 74 93 92
f 107 75 74
f 108 92 93
f 75 76 94
f 75 94 93
f 107 76 75
f 108 93 94
f 76 77 95
f 76 95 94
f 107 77 76
f 108 94 95
f 77 78 96
f 77 96 95
f 107 78 77
f 108 95 96
f 78 79 97
f 78 97 96
f 107 79 78
f 108 96 97
f 79 80 98
f 79 98 97
f 107 80 79
f 108 97 98
f 80 81 99
f 80 99 98
f 107 81 80
f 108 98 99
f 81 82 100
f 81 100 99
f 107 82 81
f 108 99 100
f 82 83 101
f 82 101 100
f 107 83 82
f 108 100 101
f 83 84 102
f 83 102 101
f 107 84 83
f 108 101 102
f 84 85 103
f 84 103 102
f 107 85 84
f 108 102 103
f 85 86 104
f 85 104 103
f 107 86 85
f 108 103 104
f 86 87 105
f 86 105 104
f 107 87 86
f 108 104 105
f 87 88 106
f 87 106 105
f 107 88 87
f 108 105 106
f 88 71 89
f 88 89 106
f 107 71 88
f 108 106 89
f 109 111 110
f 109 112 111
f 113 114 115
f 113 115 116
f 109 110 114
f 109 114 113
f 110 111 115
f 110 115 114
f 111 112 116
f 111 116 115
f 112 109 113
f 112 113 116
f 117 118 136
f 117 136 135
f 153 118 117
f 154 135 136
f 118 119 137
f 118 137 136
f 153 119 118
f 154 136 137
f 119 120 138
f 119 138 137
f 153 120 119
f 154 137 138
f 120 121 139
f 120 139 138
f 153 121 120
f 154 138 139
f 121 122 140
f 121 140 139
f 153 122 121
f 154 139 140
f 122 123 141
f 122 141 140
f 153 123 122
f 154 140 141
f 123 124 142
f 123 142 141
f 153 124 123
f 154 141 142
f 124 125 143
f 124 143 142
f 153 125 124
f 154 142 143
f 125 126 144
f 125 144 143
f 153 126 125
f 154 143 144
f 126 127 145
f 126 145 144
f 153 127 126
f 154 144 145
f 127 128 146
f 127 146 145
f 153 128 127
f 154 145 146
f 128 129 147
f 128 147 146
f 153 129 128
f 154 146 147
f 129 130 148
f 129 148 147
f 153 130 129
f 154 147 148
f 130 131 149
f 130 149 148
f 153 131 130
f 154 148 149
f 131 132 150
f 131 150 149
f 153 132 131
f 154 149 150
f 132 133 151
f 132 151 150
f 153 133 132
f 154 150 151
f 133 134 152
f 133 152 151
f 153 134 133
f 154 151 152
f 134 117 135
f 134 135 152
f 153 117 134
f 154 152 135
f 155 157 156
f 155 158 157
f 159 160 161
f 159 161 162
f 155 156 160
f 155 160 159
f 156 157 161
f 156 161 160
f 157 158 162
f 157 162 161
f 158 155 159
f 158 159 162
f 163 164 182
f 163 182 181
f 199 164 163
f 200 181 182
f 164 165 183
f 164 183 182
f 199 165 164
f 200 182 183
f 165 166 184
f 165 184 183
f 199 166 165
f 200 183 184
f 166 167 185
f 166 185 184
f 199 167 166
f 200 184 185
f 167 168 186
f 167 186 185
f 199 168 167
f 200 185 186
f 168 169 187
f 168 187 186
f 199 169 168
f 200 186 187
f 169 170 188
f 169 188 187
f 199 170 169
f 200 187 188
f 170 171 189
f 170 189 188
f 199 171 170
f 200 188 189
f 171 172 190
f 171 190 189
f 199 172 171
f 200 189 190
f 172 173 191
f 172 191 190
f 199 173 172
f 200 190 191
f 173 174 192
f 173 192 191
f 199 174 173
f 200 191 192
f 174 175 193
f 174 193 192
f 199 175 174
f 200 192 193
f 175 176 194
f 175 194 193
f 199 176 175
f 200 193 194
f 176 177 195
f 176 195 194
f 199 177 176
f 200 194 195
f 177 178 196
f 177 196 195
f 199 178 177
f 200 195 196
f 178 179 197
f 178 197 196
f 199 179 178
f 200 196 197
f 179 180 198
f 179 198 197
f 199 180 179
f 200 197 198
f 180 163 181
f 180 181 198
f 199 163 180
f 200 198 181
f 201 203 202
f 201 204 203
f 205 206 207
f 205 207 208
f 201 202 206
f 201 206 205
f 202 203 207
f 202 207 206
f 203 204 208
f 203 208 207
f 204 201 205
f 204 205 208
f 209 211 210
f 209 212 211
f 213 214 215
f 213 215 216
f 209 210 214
f 209 214 213
f 210 211 215
f 210 215 214
f 211 212 216
f 211 216 215
f 212 209 213
f 212 213 216
f 217 218 230
f 217 230 229
f 241 218 217
f 242 229 230
f 218 219 231
f 218 231 230
f 241 219 218
f 242 230 231
f 219 220 232
f 219 232 231
f 241 220 219
f 242 231 232
f 220 221 233
f 220 233 232
f 241 221 220
f 242 232 233
f 221 222 234
f 221 234 233
f 241 222 221
f 242 233 234
f 222 223 235
f 222 235 234
f 241 223 222
f 242 234 235
f 223 224 236
f 223 236 235
f 241 224 223
f 242 235 236
f 224 225 237
f 224 237 236
f 241 225 224
f 242 236 237
f 225 226 238
f 225 238 237
f 241 226 225
f 242 237 238
f 226 227 239
f 226 239 238
f 241 227 226
f 242 238 239
f 227 228 240
f 227 240 239
f 241 228 227
f 242 239 240
f 228 217 229
f 228 229 240
f 241 217 228
f 242 240 229
f 243 245 244
f 243 246 245
f 247 248 249
f 247 249 250
f 243 244 248
f 243 248 247
f 244 245 249
f 244 249 248
f 245 246 250
f 245 250 249
f 246 243 247
f 246 247 250
f 251 253 252
f 251 254 253
f 255 256 257
f 255 257 258
f 251 252 256
f 251 256 255
f 252 253 257
f 252 257 256
f 253 254 258
f 253 258 257
f 254 251 255
f 254 255 258
f 259 260 272
f 259 272 271
f 283 260 259
f 284 271 272
f 260 261 273
f 260 273 272
f 283 261 260
f 284 272 273
f 261 262 274
f 261 274 273
f 283 262 261
f 284 273 274
f 262 263 275
f 262 275 274
f 283 263 262
f 284 274 275
f 263 264 276
f 263 276 275
f 283 264 263
f 284 275 276
f 264 265 277
f 264 277 276
f 283 265 264
f 284 276 277
f 265 266 278
f 265 278 277
f 283 266 265
f 284 277 278
f 266 267 279
f 266 279 278
f 283 267 266
f 284 278 279
f 267 268 280
f 267 280 279
f 283 268 267
f 284 279 280
f 268 269 281
f 268 281 280
f 283 269 268
f 284 280 281
f 269 270 282
f 269 282 281
f 283 270 269
f 284 281 282
f 270 259 271
f 270 271 282
f 283 259 270
f 284 282 271
f 285 287 286
f 285 288 287
f 289 290 291
f 289 291 292
f 285 286 290
f 285 290 289
f 286 287 291
f 286 291 290
f 287 288 292
f 287 292 291
f 288 285 289
f 288 289 292
f 293 295 294
f 293 296 295
f 297 298 299
f 297 299 300
f 293 294 298
f 293 298 297
f 294 295 299
f 294 299 298
f 295 296 300
f 295 300 299
f 296 293 297
f 296 297 300
f 301 302 314
f 301 314 313
f 325 302 301
f 326 313 314
f 302 303 315
f 302 315 314
f 325 303 302
f 326 314 315
f 303 304 316
f 303 316 315
f 325 304 303
f 326 315 316
f 304 305 317
f 304 317 316
f 325 305 304
f 326 316 317
f 305 306 318
f 305 318 317
f 325 306 305
f 326 317 318
f 306 307 319
f 306 319 318
f 325 307 306
f 326 318 319
f 307 308 320
f 307 320 319
f 325 308 307
f 326 319 320
f 308 309 321
f 308 321 320
f 325 309 308
f 326 320 321
f 309 310 322
f 309 322 321
f 325 310 309
f 326 321 322
f 310 311 323
f 310 323 322
f 325 311 310
f 326 322 323
f 311 312 324
f 311 324 323
f 325 312 311
f 326 323 324
f 312 301 313
f 312 313 324
f 325 301 312
f 326 324 313
f 327 329 328
f 327 330 329
f 331 332 333
f 331 333 334
f 327 328 332
f 327 332 331
f 328 329 333
f 328 333 332
f 329 330 334
f 329 334 333
f 330 327 331
f 330 331 334
f 335 337 336
f 335 338 337
f 339 340 341
f 339 341 342
f 335 336 340
f 335 340 339
f 336 337 341
f 336 341 340
f 337 338 342
f 337 342 341
f 338 335 339
f 338 339 342
f 343 344 356
f 343 356 355
f 367 344 343
f 368 355 356
f 344 345 357
f 344 357 356
f 367 345 344
f 368 356 357
f 345 346 358
f 345 358 357
f 367 346 345
f 368 357 358
f 346 347 359
f 346 359 358
f 367 347 346
f 368 358 359
f 347 348 360
f 347 360 359
f 367 348 347
f 368 359 360
f 348 349 361
f 348 361 360
f 367 349 348
f 368 360 361
f 349 350 362
f 349 362 361
f 367 350 349
f 368 361 362
f 350 351 363
f 350 363 362
f 367 351 350
f 368 362 363
f 351 352 364
f 351 364 363
f 367 352 351
f 368 363 364
f 352 353 365
f 352 365 364
f 367 353 352
f 368 364 365
f 353 354 366
f 353 366 365
f 367 354 353
f 368 365 366
f 354 343 355
f 354 355 366
f 367 343 354
f 368 366 355
